# xmcd
#
# Track frame offsets:
#	187
#	16750
#	33362
#	46100
#	65205
#	79692
#	95962
#	112700
#	135677
#	152227
#	167707
#	188242
#	201792
#	213030
#	225480
#
# Disc length: 3209
#
# Revision: 1
# Processed by: cddbd v1.5.1PL0 Copyright (c) Steve Scherf et al.
# Submitted via: CDex 1.50
# Normalized: r0:DSETVAR1
#
DISCID=bf0c870f
DTITLE=Various Artist - Brasiliance! Yorubahia
DYEAR=1900
DGENRE=Brazilian
TTITLE0=Gal Costa - A VERDADEURA BAIANA
TTITLE1=Maria Bethania e Caetano Veloso - YORUBAHIA
TTITLE2=Gal Costa e Caetano Veloso - SALVADOR NAO INERTE - LADEIRA DO PELO
TTITLE3=Silvia Torres - IVE BRUSSELL
TTITLE4=Kassia - MARACANGALHA
TTITLE5=Banda Beijo - GALFO PERSICO
TTITLE6=Chiclete com Banana - CARA CARAMBA SOU CAMELEAO
TTITLE7=Gal Costa - BRILHO DE BELEZA
TTITLE8=Sanda de Sa e Grupo Olodum - CHARLES ANJO 45
TTITLE9=Cid Guerreiro - MACIOTA
TTITLE10=Obina Shok and Gilberto Gil e Gal Costa - VIDA
TTITLE11=Os Tincoas - CORDEIRO DE NANA
TTITLE12=Antonio Carlos and Jocafi - PIMENTA MALAGUETA
TTITLE13=Antonio Carlos and Jocafi - D' ANGOLA E, CAMARA
TTITLE14=Maria Bethania - EU E AGUA
EXTD=
EXTT0=
EXTT1=
EXTT2=
EXTT3=
EXTT4=
EXTT5=
EXTT6=
EXTT7=
EXTT8=
EXTT9=
EXTT10=
EXTT11=
EXTT12=
EXTT13=
EXTT14=
PLAYORDER=
